<svg width="440" height="347" viewBox="0 0 440 347" fill="none" xmlns="http://www.w3.org/2000/svg">
<path d="M2.87585 27.1797L205.169 338.853C212.067 349.488 227.633 349.488 234.531 338.853L436.824 27.1797C444.379 15.5378 436.028 0.147949 422.137 0.147949H17.563C3.684 0.147949 -4.67852 15.5378 2.87585 27.1797Z" fill="#BE2829"/>
<g opacity="0.92">
<path d="M61.835 66.6146V26.2896H67.3865L76.1121 50.5806H76.2293V26.2896H82.0034V66.6146H76.5689L67.7379 42.3821H67.6208V66.6146H61.8467H61.835Z" fill="#E8E8D5"/>
<path d="M93.2588 35.8001C93.2588 34.1721 93.5399 32.7433 94.1021 31.5018C94.6643 30.2603 95.4256 29.2179 96.3625 28.3864C97.2644 27.5899 98.295 26.9925 99.4546 26.5709C100.602 26.161 101.762 25.9502 102.933 25.9502C104.104 25.9502 105.264 26.161 106.412 26.5709C107.559 26.9808 108.613 27.5899 109.55 28.3864C110.452 29.2179 111.19 30.2603 111.764 31.5018C112.338 32.7433 112.619 34.1838 112.619 35.8001V57.0929C112.619 58.7911 112.338 60.2435 111.764 61.4499C111.19 62.6562 110.464 63.6635 109.55 64.4482C108.602 65.2797 107.559 65.9005 106.412 66.3221C105.264 66.732 104.104 66.9429 102.933 66.9429C101.762 66.9429 100.602 66.732 99.4546 66.3221C98.3068 65.9122 97.2761 65.2797 96.3625 64.4482C95.4139 63.6517 94.6643 62.6562 94.1021 61.4499C93.5399 60.2435 93.2588 58.7911 93.2588 57.0929V35.8001ZM99.0329 57.0929C99.0329 58.4866 99.4194 59.5173 100.192 60.1732C100.965 60.8291 101.879 61.1688 102.945 61.1688C104.011 61.1688 104.912 60.8408 105.685 60.1732C106.458 59.5173 106.845 58.4866 106.845 57.0929V35.8001C106.845 34.4064 106.458 33.3757 105.685 32.7081C104.912 32.0522 103.999 31.7126 102.945 31.7126C101.891 31.7126 100.977 32.0405 100.192 32.7081C99.4194 33.364 99.0329 34.3947 99.0329 35.8001V57.0929Z" fill="#E8E8D5"/>
<path d="M127.236 66.6146V31.7357H120.548V26.3013H139.686V31.7357H132.998V66.6146H127.224H127.236Z" fill="#E8E8D5"/>
<path d="M165.582 66.6146V26.2896H182.798V31.724H171.356V43.9516H181.323V49.386H171.356V66.6029H165.582V66.6146Z" fill="#E8E8D5"/>
<path d="M192.59 35.8001C192.59 34.1721 192.871 32.7433 193.445 31.5018C194.019 30.2603 194.768 29.2179 195.705 28.3864C196.607 27.5899 197.638 26.9925 198.797 26.5709C199.945 26.161 201.105 25.9502 202.276 25.9502C203.447 25.9502 204.607 26.161 205.754 26.5709C206.902 26.9808 207.956 27.5899 208.893 28.3864C209.795 29.2179 210.533 30.2603 211.107 31.5018C211.669 32.7433 211.962 34.1838 211.962 35.8001V57.0929C211.962 58.7911 211.681 60.2435 211.107 61.4499C210.545 62.6562 209.807 63.6635 208.893 64.4482C207.945 65.2797 206.902 65.9005 205.754 66.3221C204.607 66.732 203.447 66.9429 202.276 66.9429C201.105 66.9429 199.945 66.732 198.797 66.3221C197.65 65.9122 196.619 65.2797 195.705 64.4482C194.757 63.6517 194.007 62.6562 193.445 61.4499C192.883 60.2435 192.59 58.7911 192.59 57.0929V35.8001ZM198.364 57.0929C198.364 58.4866 198.751 59.5173 199.524 60.1732C200.297 60.8291 201.21 61.1688 202.276 61.1688C203.342 61.1688 204.244 60.8408 205.017 60.1732C205.79 59.5173 206.176 58.4866 206.176 57.0929V35.8001C206.176 34.4064 205.79 33.3757 205.017 32.7081C204.244 32.0522 203.33 31.7126 202.276 31.7126C201.222 31.7126 200.308 32.0405 199.524 32.7081C198.751 33.364 198.364 34.3947 198.364 35.8001V57.0929Z" fill="#E8E8D5"/>
<path d="M223.452 66.6146V26.2896H232.739C239.532 26.2896 242.929 30.2365 242.929 38.1306C242.929 40.5081 242.566 42.5344 241.828 44.1858C241.09 45.849 239.802 47.1841 237.951 48.2031L244.182 66.6029H238.068L232.692 49.386H229.237V66.6029H223.463L223.452 66.6146ZM229.226 31.7358V44.3029H232.505C233.524 44.3029 234.332 44.1624 234.941 43.8813C235.55 43.6002 236.019 43.1902 236.358 42.6632C236.663 42.1361 236.874 41.4803 236.979 40.7073C237.096 39.9343 237.155 39.0324 237.155 38.0135C237.155 36.9945 237.096 36.0927 236.979 35.3197C236.862 34.5467 236.64 33.879 236.3 33.3051C235.585 32.251 234.227 31.724 232.224 31.724H229.226V31.7358Z" fill="#E8E8D5"/>
<path d="M289.591 37.8962H283.816V36.596C283.816 35.2726 283.5 34.1365 282.879 33.1644C282.259 32.204 281.205 31.7238 279.741 31.7238C278.944 31.7238 278.3 31.8761 277.82 32.1806C277.328 32.4851 276.93 32.8599 276.625 33.3166C276.321 33.8086 276.11 34.359 276.004 34.9915C275.887 35.6122 275.829 36.2682 275.829 36.9475C275.829 37.7439 275.852 38.3998 275.911 38.9268C275.969 39.4539 276.11 39.9223 276.332 40.344C276.555 40.7539 276.894 41.117 277.328 41.4215C277.761 41.726 278.359 42.0305 279.108 42.3233L283.524 44.0802C284.812 44.5721 285.843 45.146 286.639 45.8019C287.435 46.4578 288.056 47.2307 288.513 48.0974C288.923 48.9993 289.216 50.03 289.368 51.1895C289.52 52.3373 289.591 53.649 289.591 55.1248C289.591 56.823 289.427 58.4042 289.075 59.8565C288.736 61.3088 288.185 62.5503 287.435 63.5693C286.639 64.6234 285.608 65.4549 284.32 66.064C283.032 66.673 281.474 66.9658 279.623 66.9658C278.23 66.9658 276.918 66.7199 275.712 66.228C274.505 65.736 273.463 65.0567 272.596 64.19C271.729 63.3233 271.038 62.3161 270.523 61.1566C270.008 60.0088 269.762 58.7555 269.762 57.3852V55.2302H275.536V57.0456C275.536 58.0997 275.852 59.0601 276.473 59.9033C277.094 60.7583 278.148 61.18 279.612 61.18C280.596 61.18 281.357 61.0394 281.907 60.7583C282.458 60.4772 282.879 60.0673 283.184 59.5403C283.488 59.0132 283.664 58.3808 283.723 57.6429C283.781 56.905 283.805 56.0851 283.805 55.1833C283.805 54.1292 283.77 53.2625 283.688 52.5832C283.617 51.9039 283.465 51.3534 283.231 50.9435C282.961 50.5336 282.622 50.1939 282.188 49.9245C281.755 49.6552 281.181 49.3741 280.455 49.0696L276.321 47.3713C273.826 46.3523 272.163 45.0055 271.308 43.3189C270.453 41.6441 270.031 39.5359 270.031 37.006C270.031 35.4951 270.242 34.0662 270.652 32.7076C271.062 31.349 271.694 30.1778 272.526 29.1939C273.322 28.2101 274.329 27.4255 275.559 26.8398C276.789 26.2542 278.253 25.9614 279.951 25.9614C281.38 25.9614 282.704 26.2308 283.887 26.7578C285.081 27.2849 286.1 27.9876 286.979 28.8543C288.712 30.6697 289.579 32.7428 289.579 35.0852V37.9195L289.591 37.8962Z" fill="#E8E8D5"/>
<path d="M297.695 66.6146L306.702 26.2896H311.516L320.522 66.6146H314.748L313.05 57.9477H305.179L303.481 66.6146H297.707H297.695ZM311.961 52.5132L309.126 37.908H309.009L306.175 52.5132H311.949H311.961Z" fill="#E8E8D5"/>
<path d="M329.74 66.6146V26.2896H335.514V60.8288H346.957V66.6029H329.74V66.6146Z" fill="#E8E8D5"/>
<path d="M357.088 66.6146V26.2896H374.305V31.724H362.862V43.565H372.829V48.9995H362.862V60.8405H374.305V66.6146H357.088Z" fill="#E8E8D5"/>
<path d="M198.411 104.832H229.8L223.662 206.013H204.548L198.411 104.832ZM198.411 244.417V218.288H229.8V244.417H198.411Z" fill="#E8E8D5"/>
</g>
<path style="mix-blend-mode:hard-light" opacity="0.19" d="M2.87585 27.1797L205.169 338.853C212.067 349.488 227.633 349.488 234.531 338.853L436.824 27.1797C444.379 15.5378 436.028 0.147949 422.137 0.147949H17.563C3.684 0.147949 -4.67852 15.5378 2.87585 27.1797Z" fill="url(#paint0_linear_902_1214)"/>
<defs>
<linearGradient id="paint0_linear_902_1214" x1="216.565" y1="-3.49454" x2="268.555" y2="331.123" gradientUnits="userSpaceOnUse">
<stop stop-color="#D3D4D5"/>
<stop offset="0.03" stop-color="#8B9193"/>
<stop offset="0.06" stop-color="#575F63"/>
<stop offset="0.07" stop-color="#374145"/>
<stop offset="0.08" stop-color="#2B363A"/>
<stop offset="0.12" stop-color="#343E42"/>
<stop offset="0.17" stop-color="#4D5559"/>
<stop offset="0.24" stop-color="#757B7E"/>
<stop offset="0.31" stop-color="#ADB0B1"/>
<stop offset="0.35" stop-color="#CDCDCE"/>
<stop offset="0.37" stop-color="#C6C7C8"/>
<stop offset="0.39" stop-color="#B4B6B8"/>
<stop offset="0.41" stop-color="#979C9E"/>
<stop offset="0.44" stop-color="#6F767A"/>
<stop offset="0.46" stop-color="#485357"/>
<stop offset="0.48" stop-color="#4C565A"/>
<stop offset="0.51" stop-color="#596266"/>
<stop offset="0.54" stop-color="#707578"/>
<stop offset="0.56" stop-color="#8F9092"/>
<stop offset="0.57" stop-color="#98989A"/>
<stop offset="0.61" stop-color="#A5A5A6"/>
<stop offset="0.7" stop-color="#C7C7C8"/>
<stop offset="0.8" stop-color="white"/>
<stop offset="0.83" stop-color="#D1D1D2"/>
<stop offset="0.9" stop-color="#4F4F53"/>
<stop offset="0.94" stop-color="#1B1B20"/>
<stop offset="0.95" stop-color="#313136"/>
<stop offset="0.96" stop-color="#4D4D51"/>
<stop offset="0.97" stop-color="#747476"/>
<stop offset="0.99" stop-color="#A5A5A7"/>
<stop offset="1" stop-color="#E9E9E9"/>
</linearGradient>
</defs>
</svg>
