<svg width="376" height="123" viewBox="0 0 376 123" fill="none" xmlns="http://www.w3.org/2000/svg">
<mask id="mask0_902_870" style="mask-type:luminance" maskUnits="userSpaceOnUse" x="0" y="0" width="376" height="123">
<path d="M375.857 0.928711H0.399414V122.993H375.857V0.928711Z" fill="white"/>
</mask>
<g mask="url(#mask0_902_870)">
<path d="M375.857 0.928711H0.399414V122.993H375.857V0.928711Z" fill="#F0BC00"/>
<path d="M93.5933 98.0811H22.2192C20.2867 98.0811 18.565 97.0856 17.6046 95.4108C16.6442 93.7359 16.6442 91.7449 17.6046 90.0817L53.2916 28.4873C54.252 26.8242 55.9737 25.8286 57.9062 25.8286C59.8388 25.8286 61.5487 26.8242 62.5208 28.4873L98.2079 90.0817C99.18 91.7449 99.18 93.7359 98.2079 95.4108C97.2475 97.0856 95.5258 98.0811 93.5933 98.0811ZM57.9062 30.9234C57.7657 30.9234 57.7189 31.0054 57.6954 31.0405L22.0084 92.635C22.0084 92.635 21.9381 92.7521 22.0084 92.8692C22.0786 92.9863 22.1723 92.9863 22.2192 92.9863H93.5933C93.5933 92.9863 93.7339 92.9863 93.8041 92.8692C93.8744 92.7521 93.8276 92.6701 93.8041 92.635L58.1171 31.0405C58.1171 31.0405 58.0468 30.9234 57.9062 30.9234Z" fill="#363636"/>
<path d="M54.4043 53.6802H61.4199L60.0496 76.2964H55.7746L54.4043 53.6802ZM54.4043 84.8815V79.0371H61.4199V84.8815H54.4043Z" fill="#363636"/>
<path d="M389.104 -4.45898H116.35V58.1895H389.104V-4.45898Z" fill="#363636"/>
<path d="M119.934 -8.40576H113.832V129.599H119.934V-8.40576Z" fill="#363636"/>
<path d="M165.225 43.4433H159.849L157.706 37.88H147.915L145.888 43.4433H140.641L150.175 18.9648H155.399L165.202 43.4433H165.225ZM156.125 33.7573L152.752 24.6687L149.449 33.7573H156.125Z" fill="#F3C540"/>
<path d="M173.283 43.4433V23.111H166.021V18.9648H185.475V23.111H178.226V43.455H173.283V43.4433Z" fill="#F3C540"/>
<path d="M196.637 43.4433V23.111H189.376V18.9648H208.83V23.111H201.58V43.455H196.637V43.4433Z" fill="#F3C540"/>
<path d="M214.487 43.4433V18.9648H232.641V23.111H219.429V28.5337H231.727V32.6564H219.429V39.3206H233.109V43.4433H214.487Z" fill="#F3C540"/>
<path d="M239.808 43.4433V18.9648H244.622L254.648 35.3151V18.9648H259.239V43.4433H254.285L244.411 27.4796V43.4433H239.82H239.808Z" fill="#F3C540"/>
<path d="M272.439 43.4433V23.111H265.177V18.9648H284.631V23.111H277.381V43.455H272.439V43.4433Z" fill="#F3C540"/>
<path d="M290.136 43.4433V18.9648H295.078V43.4433H290.136Z" fill="#F3C540"/>
<path d="M301.251 31.3566C301.251 28.8619 301.625 26.7654 302.375 25.0789C302.937 23.8374 303.687 22.713 304.659 21.7175C305.619 20.7219 306.673 19.9958 307.821 19.5156C309.344 18.8714 311.101 18.5435 313.103 18.5435C316.711 18.5435 319.592 19.6678 321.759 21.9049C323.925 24.1419 325.003 27.2573 325.003 31.2395C325.003 35.2216 323.925 38.2902 321.782 40.5155C319.627 42.7526 316.758 43.8652 313.162 43.8652C309.566 43.8652 306.627 42.7526 304.471 40.539C302.328 38.3136 301.251 35.2568 301.251 31.3566ZM306.345 31.1926C306.345 33.9684 306.99 36.0649 308.266 37.4938C309.543 38.9227 311.171 39.6371 313.138 39.6371C315.106 39.6371 316.722 38.9227 317.987 37.5055C319.252 36.0883 319.885 33.9567 319.885 31.1224C319.885 28.288 319.264 26.2267 318.034 24.8446C316.804 23.4626 315.165 22.7716 313.127 22.7716C311.089 22.7716 309.449 23.4743 308.196 24.868C306.954 26.2618 306.322 28.37 306.322 31.1926H306.345Z" fill="#F3C540"/>
<path d="M331.363 43.4433V18.9648H336.176L346.202 35.3151V18.9648H350.793V43.4433H345.839L335.965 27.4796V43.4433H331.374H331.363Z" fill="#F3C540"/>
<path d="M139.517 104.722V79.9507H143.066V101.173H150.093V104.722H139.517Z" fill="#363636"/>
<path d="M153.478 104.722V79.9507H157.027V104.722H153.478Z" fill="#363636"/>
<path d="M161.442 104.722V79.9507H164.85L169.406 93.0683H169.477L173.998 79.9507H177.441V104.722H173.892V89.6601H173.822L170.308 100.306H168.528L165.05 89.6601H164.979V104.722H161.43H161.442Z" fill="#363636"/>
<path d="M181.868 104.722V79.9507H185.417V104.722H181.868Z" fill="#363636"/>
<path d="M192.163 104.722V83.2887H188.052V79.9507H199.811V83.2887H195.712V104.722H192.163Z" fill="#363636"/>
<path d="M202.353 104.722V79.9507H212.929V83.2887H205.902V90.5619H212.027V93.8999H205.902V101.173H212.929V104.722H202.353Z" fill="#363636"/>
<path d="M216.197 104.722V79.9507H221.455C223.493 79.9507 225.039 80.5129 226.105 81.6255C227.159 82.7382 227.686 84.3193 227.686 86.3573V97.9406C227.686 100.26 227.124 101.97 226 103.071C224.875 104.172 223.259 104.722 221.151 104.722H216.208H216.197ZM219.745 83.2887V101.384H221.385C222.381 101.384 223.095 101.138 223.505 100.634C223.927 100.131 224.126 99.3578 224.126 98.2803V86.3455C224.126 85.3734 223.927 84.6121 223.54 84.0851C223.142 83.5463 222.428 83.2887 221.385 83.2887H219.745Z" fill="#363636"/>
<path d="M241.776 104.722V83.2887H237.665V79.9507H249.424V83.2887H245.325V104.722H241.776Z" fill="#363636"/>
<path d="M252.071 104.722V79.9507H255.62V104.722H252.071Z" fill="#363636"/>
<path d="M260.035 104.722V79.9507H263.444L268 93.0683H268.07L272.591 79.9507H276.034V104.722H272.485V89.6601H272.415L268.902 100.306H267.121L263.643 89.6601H263.572V104.722H260.024H260.035Z" fill="#363636"/>
<path d="M280.356 104.722V79.9507H290.932V83.2887H283.905V90.5619H290.03V93.8999H283.905V101.173H290.932V104.722H280.356Z" fill="#363636"/>
<path d="M301.438 85.7949C301.438 84.7994 301.614 83.921 301.965 83.148C302.316 82.3867 302.773 81.7425 303.359 81.2389C303.921 80.747 304.542 80.3839 305.256 80.1263C305.959 79.8686 306.673 79.7397 307.4 79.7397C308.126 79.7397 308.828 79.8686 309.543 80.1263C310.246 80.3839 310.89 80.7587 311.475 81.2389C312.038 81.7542 312.483 82.3867 312.834 83.148C313.185 83.9093 313.361 84.7994 313.361 85.7949V98.8775C313.361 99.9199 313.185 100.81 312.834 101.56C312.483 102.297 312.038 102.918 311.475 103.398C310.89 103.914 310.257 104.289 309.543 104.546C308.84 104.804 308.126 104.933 307.4 104.933C306.673 104.933 305.971 104.804 305.256 104.546C304.553 104.289 303.921 103.914 303.359 103.398C302.773 102.906 302.316 102.297 301.965 101.56C301.614 100.822 301.438 99.9199 301.438 98.8775V85.7949ZM304.987 98.8775C304.987 99.7325 305.221 100.365 305.701 100.775C306.181 101.185 306.744 101.384 307.388 101.384C308.032 101.384 308.594 101.185 309.074 100.775C309.555 100.365 309.789 99.7325 309.789 98.8775V85.7949C309.789 84.94 309.555 84.3075 309.074 83.8976C308.594 83.4876 308.032 83.2885 307.388 83.2885C306.744 83.2885 306.17 83.4876 305.701 83.8976C305.221 84.3075 304.987 84.94 304.987 85.7949V98.8775Z" fill="#363636"/>
<path d="M317.308 104.722V79.9507H320.716L326.081 94.872H326.151V79.9507H329.7V104.722H326.362L320.939 89.8358H320.869V104.722H317.32H317.308Z" fill="#363636"/>
<path d="M333.869 104.722V79.9507H337.418V101.173H344.445V104.722H333.869Z" fill="#363636"/>
<path d="M347.818 104.722V94.2513L342.946 79.9507H346.706L349.563 89.8006H349.634L352.492 79.9507H356.251L351.379 94.2513V104.722H347.83H347.818Z" fill="#363636"/>
<path style="mix-blend-mode:hard-light" opacity="0.19" d="M375.857 0.928711H0.399414V122.993H375.857V0.928711Z" fill="url(#paint0_linear_902_870)"/>
</g>
<defs>
<linearGradient id="paint0_linear_902_870" x1="95.2096" y1="5.5199" x2="328.833" y2="147.413" gradientUnits="userSpaceOnUse">
<stop stop-color="#36363A"/>
<stop offset="0.05" stop-color="#39393D"/>
<stop offset="0.1" stop-color="#454549"/>
<stop offset="0.14" stop-color="#58585B"/>
<stop offset="0.19" stop-color="#737376"/>
<stop offset="0.23" stop-color="#969698"/>
<stop offset="0.28" stop-color="#C0C0C2"/>
<stop offset="0.31" stop-color="#E3E3E4"/>
<stop offset="0.37" stop-color="#B0B0B2"/>
<stop offset="0.46" stop-color="#5F5F63"/>
<stop offset="0.51" stop-color="#636367"/>
<stop offset="0.56" stop-color="#707074"/>
<stop offset="0.62" stop-color="#878789"/>
<stop offset="0.65" stop-color="#98989A"/>
<stop offset="0.68" stop-color="#A5A5A6"/>
<stop offset="0.73" stop-color="#C7C7C8"/>
<stop offset="0.8" stop-color="#FDFDFD"/>
<stop offset="0.9" stop-color="#848487"/>
<stop offset="0.97" stop-color="#38383D"/>
<stop offset="1" stop-color="#1B1B20"/>
</linearGradient>
</defs>
</svg>
