<svg width="369" height="260" viewBox="0 0 369 260" fill="none" xmlns="http://www.w3.org/2000/svg">
<mask id="mask0_902_668" style="mask-type:luminance" maskUnits="userSpaceOnUse" x="0" y="0" width="369" height="260">
<path d="M368.347 259.637V0.375488L0.888489 0.375488V259.637H368.347Z" fill="white"/>
</mask>
<g mask="url(#mask0_902_668)">
<path d="M368.347 259.637V0.375488L0.888489 0.375488V259.637H368.347Z" fill="#E1E5E8"/>
<mask id="mask1_902_668" style="mask-type:luminance" maskUnits="userSpaceOnUse" x="184" y="77" width="163" height="163">
<path d="M346.714 239.269V77.1606L184.606 77.1606V239.269H346.714Z" fill="white"/>
</mask>
<g mask="url(#mask1_902_668)">
<path d="M346.715 239.269V77.1606L184.606 77.1606V239.269H346.715Z" fill="#2F2F2F"/>
<path d="M293.319 148.992V130.557H274.884V148.992H293.319Z" fill="#E1E5E8"/>
<path d="M274.895 130.557V112.122H256.46V130.557H274.895Z" fill="#E1E5E8"/>
<path d="M274.884 93.687V75.252H256.449V93.687H274.884Z" fill="#E1E5E8"/>
<path d="M256.449 112.134V93.6987H238.014V112.134H256.449Z" fill="#E1E5E8"/>
<path d="M238.025 130.569V112.134H219.59V130.569H238.025Z" fill="#E1E5E8"/>
<path d="M219.59 112.134V93.6987H201.155V112.134H219.59Z" fill="#E1E5E8"/>
<path d="M201.155 112.122V93.687H182.72V112.122H201.155Z" fill="#E1E5E8"/>
<path d="M219.145 93.6987V75.2637H200.71V93.6987H219.145Z" fill="#E1E5E8"/>
<path d="M238.025 167.427V148.992H219.59V167.427H238.025Z" fill="#E1E5E8"/>
<path d="M219.59 185.862V167.427H201.155V185.862H219.59Z" fill="#E1E5E8"/>
<path d="M219.579 204.285V185.85H201.144V204.285H219.579Z" fill="#E1E5E8"/>
<path d="M238.025 222.72V204.285H219.59V222.72H238.025Z" fill="#E1E5E8"/>
<path d="M201.155 222.72V204.285H182.72V222.72H201.155Z" fill="#E1E5E8"/>
<path d="M219.813 241.155V222.72H201.378V241.155H219.813Z" fill="#E1E5E8"/>
<path d="M256.449 204.297V185.862H238.014V204.297H256.449Z" fill="#E1E5E8"/>
<path d="M274.884 185.85V167.415H256.449V185.85H274.884Z" fill="#E1E5E8"/>
<path d="M274.884 204.285V185.85H256.449V204.285H274.884Z" fill="#E1E5E8"/>
<path d="M293.319 222.72V204.285H274.884V222.72H293.319Z" fill="#E1E5E8"/>
<path d="M330.189 241.155V222.72H311.754V241.155H330.189Z" fill="#E1E5E8"/>
<path d="M274.884 241.155V222.72H256.449V241.155H274.884Z" fill="#E1E5E8"/>
<path d="M311.742 204.297V185.862H293.307V204.297H311.742Z" fill="#E1E5E8"/>
<path d="M330.177 185.862V167.427H311.742V185.862H330.177Z" fill="#E1E5E8"/>
<path d="M348.612 204.297V185.862H330.177V204.297H348.612Z" fill="#E1E5E8"/>
<path d="M348.624 222.732V204.297H330.189V222.732H348.624Z" fill="#E1E5E8"/>
<path d="M348.612 167.427V148.992H330.177V167.427H348.612Z" fill="#E1E5E8"/>
<path d="M330.189 148.992V130.557H311.754V148.992H330.189Z" fill="#E1E5E8"/>
<path d="M201.155 167.427V148.992H182.72V167.427H201.155Z" fill="#E1E5E8"/>
<path d="M256.46 149.003V130.568H238.025V149.003H256.46Z" fill="#E1E5E8"/>
<path d="M348.624 130.569V112.134H330.189V130.569H348.624Z" fill="#E1E5E8"/>
<path d="M330.177 112.134V93.6987H311.742V112.134H330.177Z" fill="#E1E5E8"/>
<path d="M311.742 112.134V93.6987H293.307V112.134H311.742Z" fill="#E1E5E8"/>
<path d="M293.319 130.557V112.122H274.884V130.557H293.319Z" fill="#E1E5E8"/>
</g>
<path d="M31.0591 212.799C31.0591 211.827 31.0942 210.996 31.1645 210.305C31.2348 209.614 31.3519 209.016 31.5159 208.524C31.6798 208.021 31.8789 207.564 32.0898 207.166C32.3123 206.767 32.5817 206.346 32.9213 205.913C33.5889 205.046 34.4322 204.367 35.4394 203.875C36.4467 203.394 37.5359 203.148 38.7072 203.148C39.8784 203.148 40.9676 203.394 41.9748 203.875C42.9821 204.367 43.8137 205.046 44.493 205.913C44.8326 206.346 45.1137 206.767 45.348 207.166C45.5822 207.564 45.7813 208.021 45.957 208.524C46.121 209.028 46.2381 209.625 46.2849 210.305C46.3318 210.996 46.3552 211.827 46.3552 212.799C46.3552 213.877 46.3435 214.779 46.3084 215.517C46.2732 216.254 46.1795 216.91 46.0038 217.484C45.8399 218.058 45.5822 218.562 45.2191 219.018C44.8561 219.475 44.3876 219.944 43.7902 220.447C44.3993 220.916 44.8678 221.384 45.2191 221.853C45.5705 222.321 45.8282 222.872 46.0038 223.516C46.1678 224.148 46.2732 224.933 46.3084 225.858C46.3435 226.784 46.3552 227.908 46.3552 229.255C46.3552 230.368 46.3318 231.281 46.2849 231.996C46.2381 232.722 46.1561 233.342 46.0624 233.881C45.957 234.42 45.8165 234.877 45.6408 235.24C45.4534 235.615 45.2308 235.989 44.9615 236.399C44.3876 237.278 43.5911 238.016 42.5488 238.636C41.5064 239.257 40.2297 239.573 38.7306 239.573C37.2314 239.573 35.9431 239.269 34.9124 238.636C33.87 238.016 33.0736 237.266 32.4997 236.399C32.2303 236.001 32.0078 235.615 31.8204 235.24C31.633 234.877 31.4924 234.42 31.3987 233.881C31.2933 233.342 31.2231 232.722 31.1762 231.996C31.1294 231.269 31.1059 230.356 31.1059 229.255C31.1059 227.92 31.1176 226.784 31.1528 225.858C31.1879 224.933 31.2816 224.16 31.4573 223.516C31.6213 222.884 31.8789 222.321 32.242 221.853C32.5934 221.384 33.0736 220.916 33.6709 220.447C33.0619 219.944 32.5934 219.464 32.242 219.018C31.8907 218.573 31.633 218.058 31.4573 217.484C31.2933 216.91 31.1879 216.266 31.1528 215.517C31.1176 214.779 31.1059 213.877 31.1059 212.799H31.0591ZM41.2253 210.785C41.2253 210.082 40.9793 209.485 40.4757 209.005C39.9721 208.524 39.3865 208.278 38.7189 208.278C38.0513 208.278 37.4657 208.524 36.962 209.005C36.4584 209.496 36.2124 210.082 36.2124 210.785V216.02C36.2124 216.723 36.4584 217.32 36.962 217.8C37.4657 218.292 38.0513 218.527 38.7189 218.527C39.3865 218.527 39.9721 218.281 40.4757 217.8C40.9793 217.32 41.2253 216.723 41.2253 216.02V210.785ZM41.2253 224.875C41.2253 224.172 40.9793 223.575 40.4757 223.094C39.9721 222.614 39.3865 222.368 38.7189 222.368C38.0513 222.368 37.4657 222.614 36.962 223.094C36.4584 223.586 36.2124 224.172 36.2124 224.875V231.914C36.2124 232.616 36.4584 233.214 36.962 233.694C37.4657 234.174 38.0513 234.42 38.7189 234.42C39.3865 234.42 39.9721 234.174 40.4757 233.694C40.9793 233.202 41.2253 232.616 41.2253 231.914V224.875Z" fill="#363636"/>
<path d="M63.256 239.257V233.928H53.043V229.103L60.4334 203.441H65.8678L58.1729 229.103H63.256V218.89H68.3859V229.103H70.8455V233.928H68.3859V239.257H63.256Z" fill="#363636"/>
<path d="M95.4996 239.257V208.267H89.5615V203.441H106.568V208.267H100.63V239.257H95.4996Z" fill="#363636"/>
<path d="M118.139 239.257V224.113L111.1 203.441H116.535L120.657 217.683H120.763L124.886 203.441H130.32L123.281 224.113V239.257H118.151H118.139Z" fill="#363636"/>
<path d="M28.1545 27.6417C28.1545 26.4353 28.3654 25.3578 28.787 24.4208C29.2086 23.4838 29.7708 22.6757 30.4736 22.0081C31.1763 21.3405 31.9961 20.8252 32.9097 20.4738C33.835 20.1224 34.7954 19.9468 35.8026 19.9468C36.8099 19.9468 37.7703 20.1224 38.6955 20.4738C39.6208 20.8252 40.4289 21.3405 41.1317 22.0081C41.8344 22.6757 42.3966 23.4838 42.8182 24.4208C43.2398 25.3578 43.4507 26.4353 43.4507 27.6417V48.6651C43.4507 49.8714 43.2398 50.9489 42.8182 51.8859C42.3966 52.8229 41.8344 53.631 41.1317 54.2986C40.4289 54.9662 39.6091 55.4816 38.6955 55.8329C37.7703 56.1843 36.8099 56.36 35.8026 56.36C34.7954 56.36 33.835 56.1843 32.9097 55.8329C31.9844 55.4816 31.1763 54.9662 30.4736 54.2986C29.7708 53.631 29.2086 52.8229 28.787 51.8859C28.3654 50.9489 28.1545 49.8714 28.1545 48.6651V27.6417ZM33.2845 48.6651C33.2845 49.4029 33.5187 50.012 33.9872 50.5039C34.4557 50.9958 35.0647 51.23 35.8026 51.23C36.5405 51.23 37.1378 50.9841 37.618 50.5039C38.0865 50.0237 38.3207 49.4029 38.3207 48.6651V27.6417C38.3207 26.9038 38.0865 26.2948 37.618 25.8029C37.1495 25.3227 36.5405 25.0767 35.8026 25.0767C35.0647 25.0767 34.4557 25.3227 33.9872 25.8029C33.5187 26.2948 33.2845 26.9038 33.2845 27.6417V48.6651Z" fill="#363636"/>
<path d="M55.2682 56.0672L61.1009 41.0287L60.9955 40.9233C60.8315 41.0521 60.5622 41.1693 60.2108 41.2513C59.8594 41.3333 59.4027 41.3801 58.8288 41.3801C57.9269 41.3801 57.0836 41.1576 56.3106 40.7242C55.5376 40.2908 54.9403 39.7404 54.4952 39.0611C54.261 38.7214 54.0736 38.3701 53.9448 37.9836C53.8159 37.597 53.7105 37.1051 53.6403 36.4961C53.5348 35.887 53.4763 35.1258 53.4411 34.2122C53.406 33.287 53.3943 32.1275 53.3943 30.7103C53.3943 29.5391 53.406 28.567 53.4411 27.8174C53.4763 27.0678 53.5466 26.4119 53.6403 25.8848C53.7105 25.3812 53.8159 24.9479 53.9682 24.5731C54.1204 24.21 54.3078 23.8235 54.5421 23.4136C55.2097 22.3009 56.1115 21.4459 57.2359 20.8486C58.3603 20.2396 59.6252 19.9468 61.0306 19.9468C62.4361 19.9468 63.701 20.263 64.802 20.872C65.9029 21.4928 66.793 22.3361 67.4724 23.4136C67.7066 23.8118 67.9057 24.1983 68.0814 24.5731C68.2454 24.9479 68.3859 25.3812 68.4796 25.8848C68.5499 26.4236 68.5967 27.0678 68.6319 27.8174C68.667 28.567 68.6787 29.5391 68.6787 30.7103C68.6787 31.8112 68.667 32.7365 68.6319 33.4509C68.5967 34.1771 68.5499 34.7861 68.4796 35.2897C68.3742 35.8285 68.2688 36.3087 68.1517 36.7186C68.0345 37.1403 67.894 37.5853 67.7183 38.0538L60.9721 56.0672H55.2331H55.2682ZM58.5359 34.2825C58.5359 35.0555 58.7819 35.6762 59.2855 36.1447C59.7892 36.6132 60.3748 36.8475 61.0423 36.8475C61.7099 36.8475 62.2956 36.6132 62.7992 36.1447C63.3028 35.6762 63.5488 35.0555 63.5488 34.2825V27.6417C63.5488 26.8687 63.3028 26.2479 62.7992 25.7794C62.2956 25.3109 61.7099 25.0767 61.0423 25.0767C60.3748 25.0767 59.7892 25.3109 59.2855 25.7794C58.7819 26.2479 58.5359 26.8687 58.5359 27.6417V34.2825Z" fill="#363636"/>
<path d="M87.6173 56.0669V50.7378H77.4043V45.9124L84.7947 20.251H90.2291L82.5342 45.9124H87.6173V35.6994H92.7473V45.9124H95.2068V50.7378H92.7473V56.0669H87.6173Z" fill="#363636"/>
<path d="M109.999 35.3361C111.545 35.3361 112.611 35.1487 113.197 34.7857C113.782 34.4226 114.075 33.5676 114.075 32.2207V27.5944C114.075 26.8565 113.853 26.2475 113.396 25.779C112.939 25.3105 112.33 25.0762 111.557 25.0762C110.655 25.0762 110.011 25.3573 109.625 25.9312C109.238 26.5051 109.051 27.0556 109.051 27.5944V30.5107H103.921V27.5475C103.921 26.5051 104.12 25.5213 104.53 24.5843C104.928 23.6474 105.49 22.8392 106.193 22.1716C106.896 21.504 107.715 20.9653 108.652 20.5671C109.589 20.1689 110.597 19.958 111.674 19.958C113.08 19.958 114.251 20.2391 115.176 20.7896C116.101 21.3401 116.792 21.9022 117.261 22.4761C117.6 22.8743 117.893 23.2843 118.139 23.6825C118.385 24.0807 118.596 24.5726 118.772 25.1465C119.076 26.2475 119.229 27.8989 119.229 30.0774C119.229 31.3189 119.205 32.3261 119.158 33.0991C119.111 33.8721 118.983 34.5046 118.783 35.0082C118.549 35.5469 118.221 36.0037 117.8 36.3668C117.378 36.7416 116.804 37.1398 116.066 37.5732C116.874 38.0768 117.483 38.5453 117.905 38.9786C118.327 39.412 118.631 39.9156 118.83 40.4895C119.029 41.0985 119.147 41.8013 119.182 42.6328C119.217 43.4527 119.229 44.5068 119.229 45.7717C119.229 46.9429 119.205 47.915 119.158 48.688C119.111 49.461 119.029 50.0935 118.936 50.5971C118.83 51.1359 118.701 51.5927 118.537 51.9557C118.374 52.3305 118.151 52.7053 117.882 53.1152C117.249 54.0522 116.429 54.8369 115.445 55.4577C114.45 56.0784 113.162 56.3829 111.545 56.3829C110.737 56.3829 109.882 56.2541 108.98 55.9847C108.078 55.7154 107.247 55.282 106.521 54.673C105.783 54.0639 105.174 53.2792 104.682 52.3071C104.19 51.335 103.956 50.1403 103.956 48.7349V45.8186H109.086V48.4889C109.086 49.2971 109.308 49.9529 109.765 50.48C110.222 50.9953 110.831 51.2647 111.604 51.2647C112.377 51.2647 112.986 51.007 113.443 50.48C113.899 49.9646 114.122 49.2619 114.122 48.3952V43.2653C114.122 41.8598 113.853 40.9346 113.314 40.5012C113.009 40.2318 112.599 40.0679 112.084 39.9976C111.569 39.9273 110.889 39.8922 110.046 39.8922V35.3595L109.999 35.3361Z" fill="#363636"/>
<path d="M129.16 27.6417C129.16 26.4353 129.371 25.3578 129.793 24.4208C130.215 23.4838 130.777 22.6757 131.479 22.0081C132.182 21.3405 133.002 20.8252 133.916 20.4738C134.841 20.1224 135.801 19.9468 136.808 19.9468C137.816 19.9468 138.776 20.1224 139.701 20.4738C140.627 20.8252 141.435 21.3405 142.138 22.0081C142.84 22.6757 143.402 23.4838 143.824 24.4208C144.246 25.3578 144.457 26.4353 144.457 27.6417V48.6651C144.457 49.8714 144.246 50.9489 143.824 51.8859C143.402 52.8229 142.84 53.631 142.138 54.2986C141.435 54.9662 140.615 55.4816 139.701 55.8329C138.776 56.1843 137.816 56.36 136.808 56.36C135.801 56.36 134.841 56.1843 133.916 55.8329C132.99 55.4816 132.182 54.9662 131.479 54.2986C130.777 53.631 130.215 52.8229 129.793 51.8859C129.371 50.9489 129.16 49.8714 129.16 48.6651V27.6417ZM134.29 48.6651C134.29 49.4029 134.525 50.012 134.993 50.5039C135.462 50.9958 136.071 51.23 136.808 51.23C137.546 51.23 138.144 50.9841 138.624 50.5039C139.092 50.0237 139.327 49.4029 139.327 48.6651V27.6417C139.327 26.9038 139.092 26.2948 138.624 25.8029C138.155 25.3227 137.546 25.0767 136.808 25.0767C136.071 25.0767 135.462 25.3227 134.993 25.8029C134.525 26.2948 134.29 26.9038 134.29 27.6417V48.6651Z" fill="#363636"/>
<path d="M154.424 27.6417C154.424 26.4353 154.635 25.3578 155.056 24.4208C155.478 23.4838 156.04 22.6757 156.743 22.0081C157.446 21.3405 158.265 20.8252 159.179 20.4738C160.104 20.1224 161.065 19.9468 162.072 19.9468C163.079 19.9468 164.04 20.1224 164.965 20.4738C165.89 20.8252 166.698 21.3405 167.401 22.0081C168.104 22.6757 168.666 23.4838 169.087 24.4208C169.509 25.3578 169.72 26.4353 169.72 27.6417V48.6651C169.72 49.8714 169.509 50.9489 169.087 51.8859C168.666 52.8229 168.104 53.631 167.401 54.2986C166.698 54.9662 165.878 55.4816 164.965 55.8329C164.04 56.1843 163.079 56.36 162.072 56.36C161.065 56.36 160.104 56.1843 159.179 55.8329C158.254 55.4816 157.446 54.9662 156.743 54.2986C156.04 53.631 155.478 52.8229 155.056 51.8859C154.635 50.9489 154.424 49.8714 154.424 48.6651V27.6417ZM159.554 48.6651C159.554 49.4029 159.788 50.012 160.256 50.5039C160.725 50.9958 161.334 51.23 162.072 51.23C162.81 51.23 163.419 50.9841 163.887 50.5039C164.356 50.0237 164.59 49.4029 164.59 48.6651V27.6417C164.59 26.9038 164.356 26.2948 163.887 25.8029C163.419 25.3227 162.81 25.0767 162.072 25.0767C161.334 25.0767 160.725 25.3227 160.256 25.8029C159.788 26.2948 159.554 26.9038 159.554 27.6417V48.6651Z" fill="#363636"/>
<path d="M179.675 27.6417C179.675 26.4353 179.886 25.3578 180.308 24.4208C180.729 23.4838 181.292 22.6757 181.994 22.0081C182.697 21.3405 183.517 20.8252 184.43 20.4738C185.356 20.1224 186.316 19.9468 187.323 19.9468C188.331 19.9468 189.291 20.1224 190.216 20.4738C191.142 20.8252 191.95 21.3405 192.652 22.0081C193.355 22.6757 193.917 23.4838 194.339 24.4208C194.761 25.3578 194.971 26.4353 194.971 27.6417V48.6651C194.971 49.8714 194.761 50.9489 194.339 51.8859C193.917 52.8229 193.355 53.631 192.652 54.2986C191.95 54.9662 191.13 55.4816 190.216 55.8329C189.291 56.1843 188.331 56.36 187.323 56.36C186.316 56.36 185.356 56.1843 184.43 55.8329C183.505 55.4816 182.697 54.9662 181.994 54.2986C181.292 53.631 180.729 52.8229 180.308 51.8859C179.886 50.9489 179.675 49.8714 179.675 48.6651V27.6417ZM184.805 48.6651C184.805 49.4029 185.039 50.012 185.508 50.5039C185.976 50.9958 186.585 51.23 187.323 51.23C188.061 51.23 188.67 50.9841 189.139 50.5039C189.607 50.0237 189.841 49.4029 189.841 48.6651V27.6417C189.841 26.9038 189.607 26.2948 189.139 25.8029C188.67 25.3227 188.061 25.0767 187.323 25.0767C186.585 25.0767 185.976 25.3227 185.508 25.8029C185.039 26.2948 184.805 26.9038 184.805 27.6417V48.6651Z" fill="#363636"/>
<path d="M213.886 56.0669V50.7378H203.673V45.9124L211.064 20.251H216.498L208.803 45.9124H213.886V35.6994H219.016V45.9124H221.476V50.7378H219.016V56.0669H213.886Z" fill="#363636"/>
<path d="M236.269 35.3361C237.815 35.3361 238.88 35.1487 239.466 34.7857C240.052 34.4226 240.344 33.5676 240.344 32.2207V27.5944C240.344 26.8565 240.122 26.2475 239.665 25.779C239.208 25.3105 238.599 25.0762 237.826 25.0762C236.924 25.0762 236.28 25.3573 235.894 25.9312C235.507 26.5051 235.32 27.0556 235.32 27.5944V30.5107H230.19V27.5475C230.19 26.5051 230.389 25.5213 230.799 24.5843C231.197 23.6474 231.759 22.8392 232.462 22.1716C233.165 21.504 233.985 20.9653 234.922 20.5671C235.859 20.1689 236.866 19.958 237.943 19.958C239.349 19.958 240.52 20.2391 241.445 20.7896C242.371 21.3401 243.062 21.9022 243.53 22.4761C243.87 22.8743 244.163 23.2843 244.409 23.6825C244.654 24.0807 244.865 24.5726 245.041 25.1465C245.346 26.2475 245.498 27.8989 245.498 30.0774C245.498 31.3189 245.474 32.3261 245.427 33.0991C245.381 33.8721 245.252 34.5046 245.053 35.0082C244.818 35.5469 244.491 36.0037 244.069 36.3668C243.647 36.7416 243.073 37.1398 242.335 37.5732C243.144 38.0768 243.753 38.5453 244.174 38.9786C244.596 39.412 244.9 39.9156 245.1 40.4895C245.299 41.0985 245.416 41.8013 245.451 42.6328C245.486 43.4527 245.498 44.5068 245.498 45.7717C245.498 46.9429 245.474 47.915 245.427 48.688C245.381 49.461 245.299 50.0935 245.205 50.5971C245.1 51.1359 244.971 51.5927 244.807 51.9557C244.643 52.3305 244.42 52.7053 244.151 53.1152C243.518 54.0522 242.699 54.8369 241.715 55.4577C240.719 56.0784 239.431 56.3829 237.815 56.3829C237.006 56.3829 236.151 56.2541 235.25 55.9847C234.348 55.7154 233.528 55.282 232.79 54.673C232.052 54.0639 231.443 53.2792 230.951 52.3071C230.471 51.335 230.225 50.1403 230.225 48.7349V45.8186H235.355V48.4889C235.355 49.2971 235.578 49.9529 236.034 50.48C236.491 50.9953 237.1 51.2647 237.873 51.2647C238.646 51.2647 239.255 51.007 239.712 50.48C240.169 49.9646 240.391 49.2619 240.391 48.3952V43.2653C240.391 41.8598 240.122 40.9346 239.583 40.5012C239.279 40.2318 238.869 40.0679 238.353 39.9976C237.838 39.9273 237.159 39.8922 236.315 39.8922V35.3595L236.269 35.3361Z" fill="#363636"/>
<path d="M255.442 27.6417C255.442 26.4353 255.652 25.3578 256.074 24.4208C256.496 23.4838 257.058 22.6757 257.761 22.0081C258.463 21.3405 259.283 20.8252 260.197 20.4738C261.122 20.1224 262.082 19.9468 263.09 19.9468C264.097 19.9468 265.057 20.1224 265.983 20.4738C266.908 20.8252 267.716 21.3405 268.419 22.0081C269.121 22.6757 269.684 23.4838 270.105 24.4208C270.527 25.3578 270.738 26.4353 270.738 27.6417V48.6651C270.738 49.8714 270.527 50.9489 270.105 51.8859C269.684 52.8229 269.121 53.631 268.419 54.2986C267.716 54.9662 266.896 55.4816 265.983 55.8329C265.057 56.1843 264.097 56.36 263.09 56.36C262.082 56.36 261.122 56.1843 260.197 55.8329C259.271 55.4816 258.463 54.9662 257.761 54.2986C257.058 53.631 256.496 52.8229 256.074 51.8859C255.652 50.9489 255.442 49.8714 255.442 48.6651V27.6417ZM260.571 48.6651C260.571 49.4029 260.806 50.012 261.274 50.5039C261.743 50.9958 262.352 51.23 263.09 51.23C263.827 51.23 264.425 50.9841 264.905 50.5039C265.373 50.0237 265.608 49.4029 265.608 48.6651V27.6417C265.608 26.9038 265.373 26.2948 264.905 25.8029C264.436 25.3227 263.827 25.0767 263.09 25.0767C262.352 25.0767 261.743 25.3227 261.274 25.8029C260.806 26.2948 260.571 26.9038 260.571 27.6417V48.6651Z" fill="#363636"/>
<path d="M280.693 27.6417C280.693 26.4353 280.904 25.3578 281.325 24.4208C281.747 23.4838 282.309 22.6757 283.012 22.0081C283.715 21.3405 284.534 20.8252 285.448 20.4738C286.373 20.1224 287.334 19.9468 288.341 19.9468C289.348 19.9468 290.309 20.1224 291.234 20.4738C292.159 20.8252 292.967 21.3405 293.67 22.0081C294.373 22.6757 294.935 23.4838 295.357 24.4208C295.778 25.3578 295.989 26.4353 295.989 27.6417V48.6651C295.989 49.8714 295.778 50.9489 295.357 51.8859C294.935 52.8229 294.373 53.631 293.67 54.2986C292.967 54.9662 292.147 55.4816 291.234 55.8329C290.309 56.1843 289.348 56.36 288.341 56.36C287.334 56.36 286.373 56.1843 285.448 55.8329C284.523 55.4816 283.715 54.9662 283.012 54.2986C282.309 53.631 281.747 52.8229 281.325 51.8859C280.904 50.9489 280.693 49.8714 280.693 48.6651V27.6417ZM285.823 48.6651C285.823 49.4029 286.057 50.012 286.526 50.5039C286.994 50.9958 287.603 51.23 288.341 51.23C289.079 51.23 289.676 50.9841 290.156 50.5039C290.625 50.0237 290.859 49.4029 290.859 48.6651V27.6417C290.859 26.9038 290.625 26.2948 290.156 25.8029C289.688 25.3227 289.079 25.0767 288.341 25.0767C287.603 25.0767 286.994 25.3227 286.526 25.8029C286.057 26.2948 285.823 26.9038 285.823 27.6417V48.6651Z" fill="#363636"/>
<path d="M305.944 56.0667V51.2413L315.197 33.7901C315.665 32.9234 315.935 32.1504 316.005 31.5063C316.075 30.8504 316.111 30.0422 316.111 29.0701C316.111 28.6367 316.111 28.1683 316.087 27.6881C316.064 27.2079 315.982 26.7745 315.806 26.3997C315.642 26.0366 315.384 25.7204 315.056 25.4745C314.717 25.2285 314.237 25.0997 313.592 25.0997C312.819 25.0997 312.21 25.3222 311.754 25.7556C311.297 26.1889 311.074 26.8331 311.074 27.6647V30.581H305.944V27.7583C305.944 26.6808 306.143 25.6736 306.553 24.7366C306.952 23.7996 307.514 22.9798 308.217 22.277C308.884 21.5743 309.692 21.0121 310.629 20.5905C311.566 20.1688 312.573 19.958 313.651 19.958C314.998 19.958 316.146 20.204 317.094 20.6842C318.055 21.1761 318.851 21.832 319.484 22.6752C320.093 23.5185 320.538 24.4672 320.819 25.5447C321.1 26.6223 321.252 27.7583 321.252 28.9647C321.252 29.8431 321.24 30.5693 321.205 31.1549C321.17 31.7405 321.1 32.3027 321.006 32.8414C320.901 33.3802 320.737 33.9189 320.503 34.446C320.268 34.9847 319.952 35.6406 319.542 36.4019L312 50.9368H321.252V56.0667H305.956H305.944Z" fill="#363636"/>
<path d="M331.196 27.6417C331.196 26.4353 331.407 25.3578 331.828 24.4208C332.25 23.4838 332.812 22.6757 333.515 22.0081C334.218 21.3405 335.038 20.8252 335.951 20.4738C336.876 20.1224 337.837 19.9468 338.844 19.9468C339.851 19.9468 340.812 20.1224 341.737 20.4738C342.662 20.8252 343.47 21.3405 344.173 22.0081C344.876 22.6757 345.438 23.4838 345.86 24.4208C346.281 25.3578 346.492 26.4353 346.492 27.6417V48.6651C346.492 49.8714 346.281 50.9489 345.86 51.8859C345.438 52.8229 344.876 53.631 344.173 54.2986C343.47 54.9662 342.65 55.4816 341.737 55.8329C340.812 56.1843 339.851 56.36 338.844 56.36C337.837 56.36 336.876 56.1843 335.951 55.8329C335.026 55.4816 334.218 54.9662 333.515 54.2986C332.812 53.631 332.25 52.8229 331.828 51.8859C331.407 50.9489 331.196 49.8714 331.196 48.6651V27.6417ZM336.326 48.6651C336.326 49.4029 336.56 50.012 337.029 50.5039C337.497 50.9958 338.106 51.23 338.844 51.23C339.582 51.23 340.191 50.9841 340.659 50.5039C341.128 50.0237 341.362 49.4029 341.362 48.6651V27.6417C341.362 26.9038 341.128 26.2948 340.659 25.8029C340.191 25.3227 339.582 25.0767 338.844 25.0767C338.106 25.0767 337.497 25.3227 337.029 25.8029C336.56 26.2948 336.326 26.9038 336.326 27.6417V48.6651Z" fill="#363636"/>
<g opacity="0.43">
<path d="M-3.86672 121.07V116.397L5.0814 99.5194C5.53817 98.6761 5.79585 97.9382 5.85441 97.3058C5.92468 96.6733 5.94811 95.8886 5.94811 94.9516C5.94811 94.53 5.9481 94.0849 5.92468 93.6164C5.91296 93.1479 5.81927 92.738 5.6553 92.3749C5.49133 92.0236 5.24537 91.719 4.92914 91.4731C4.6012 91.2271 4.13272 91.11 3.52368 91.11C2.7741 91.11 2.18849 91.3208 1.74342 91.7425C1.31007 92.1641 1.08754 92.7848 1.08754 93.593V96.4156H-3.87843V93.6867C-3.87843 92.6443 -3.67932 91.6722 -3.29282 90.7704C-2.90631 89.8685 -2.36756 89.0721 -1.68825 88.3811C-1.04408 87.7018 -0.259357 87.163 0.642482 86.7531C1.54432 86.3431 2.52814 86.144 3.55882 86.144C4.85887 86.144 5.97153 86.3783 6.89679 86.8468C7.82205 87.3153 8.59506 87.9594 9.20409 88.7676C9.7897 89.5757 10.2231 90.501 10.4924 91.5433C10.7618 92.5857 10.9024 93.6867 10.9024 94.8462C10.9024 95.6895 10.8906 96.3922 10.8555 96.9661C10.8204 97.5283 10.7618 98.0788 10.6564 98.5941C10.5627 99.1094 10.3987 99.6365 10.1645 100.152C9.94196 100.667 9.62573 101.3 9.23923 102.049L1.94254 116.104H10.8907V121.07H-3.90186H-3.86672Z" fill="#363636"/>
<path d="M18.5972 93.5808C18.5972 92.4096 18.7963 91.3789 19.2062 90.4654C19.6161 89.5635 20.1549 88.7788 20.8342 88.1346C21.5135 87.4905 22.2982 86.9868 23.1884 86.6472C24.0785 86.3075 25.0155 86.1318 25.9876 86.1318C26.9597 86.1318 27.8967 86.3075 28.7868 86.6472C29.6769 86.9868 30.4616 87.4788 31.1409 88.1346C31.8202 88.7788 32.359 89.5635 32.7689 90.4654C33.1789 91.3789 33.378 92.4096 33.378 93.5808V113.913C33.378 115.084 33.1789 116.115 32.7689 117.029C32.359 117.942 31.8202 118.715 31.1409 119.359C30.4616 120.004 29.6769 120.507 28.7868 120.847C27.8967 121.186 26.9597 121.362 25.9876 121.362C25.0155 121.362 24.0785 121.186 23.1884 120.847C22.2982 120.507 21.5135 120.015 20.8342 119.359C20.1549 118.715 19.6044 117.93 19.2062 117.029C18.7963 116.127 18.5972 115.084 18.5972 113.913V93.5808ZM23.5631 113.913C23.5631 114.628 23.7857 115.225 24.2424 115.693C24.6992 116.162 25.2848 116.396 25.9993 116.396C26.7137 116.396 27.2993 116.162 27.7561 115.693C28.2129 115.225 28.4354 114.628 28.4354 113.913V93.5808C28.4354 92.8664 28.2129 92.2807 27.7561 91.8005C27.2993 91.332 26.7137 91.0978 25.9993 91.0978C25.2848 91.0978 24.6992 91.332 24.2424 91.8005C23.7857 92.269 23.5631 92.8664 23.5631 93.5808V113.913Z" fill="#363636"/>
<path d="M42.8769 121.07L48.5222 106.523L48.4285 106.43C48.2645 106.558 48.0186 106.664 47.6789 106.746C47.3393 106.828 46.8942 106.863 46.3437 106.863C45.4653 106.863 44.6572 106.652 43.9076 106.23C43.158 105.809 42.5724 105.27 42.1508 104.626C41.9282 104.298 41.7408 103.958 41.612 103.583C41.4832 103.209 41.3895 102.728 41.3192 102.143C41.2255 101.557 41.1552 100.819 41.1201 99.9293C41.085 99.0391 41.0732 97.9148 41.0732 96.5445C41.0732 95.4084 41.085 94.4714 41.1201 93.7452C41.1552 93.0191 41.2138 92.3866 41.3192 91.8713C41.3895 91.3794 41.4949 90.9694 41.6354 90.6064C41.776 90.255 41.9634 89.8802 42.1976 89.482C42.8418 88.4162 43.7085 87.5846 44.7977 86.999C45.887 86.4134 47.105 86.1206 48.4753 86.1206C49.8457 86.1206 51.052 86.4251 52.1296 87.0224C53.1954 87.6198 54.0621 88.4396 54.7062 89.482C54.9288 89.8685 55.1279 90.2433 55.2918 90.6064C55.4558 90.9694 55.5847 91.3794 55.6784 91.8713C55.7486 92.3866 55.7955 93.0191 55.8189 93.7452C55.854 94.4714 55.8657 95.4084 55.8657 96.5445C55.8657 97.6103 55.854 98.5004 55.8189 99.1914C55.7838 99.8941 55.7369 100.48 55.6784 100.972C55.5847 101.487 55.4792 101.955 55.3621 102.354C55.245 102.764 55.1162 103.185 54.9522 103.642L48.4285 121.058H42.8886L42.8769 121.07ZM46.0392 100.011C46.0392 100.761 46.2852 101.358 46.7654 101.815C47.2573 102.272 47.8195 102.494 48.4636 102.494C49.1078 102.494 49.6817 102.272 50.1619 101.815C50.6538 101.358 50.8881 100.761 50.8881 100.011V93.593C50.8881 92.8434 50.6421 92.2461 50.1619 91.7893C49.67 91.3325 49.1078 91.11 48.4636 91.11C47.8195 91.11 47.2456 91.3325 46.7654 91.7893C46.2735 92.2461 46.0392 92.8434 46.0392 93.593V100.011Z" fill="#363636"/>
<path d="M63.5488 93.5808C63.5488 92.4096 63.7479 91.3789 64.1579 90.4654C64.5678 89.5635 65.1066 88.7788 65.7859 88.1346C66.4652 87.4905 67.2499 86.9868 68.14 86.6472C69.0301 86.3075 69.9671 86.1318 70.9392 86.1318C71.9114 86.1318 72.8483 86.3075 73.7385 86.6472C74.6286 86.9868 75.4133 87.4788 76.0926 88.1346C76.7719 88.7788 77.3107 89.5635 77.7206 90.4654C78.1305 91.3789 78.3296 92.4096 78.3296 93.5808V113.913C78.3296 115.084 78.1305 116.115 77.7206 117.029C77.3107 117.942 76.7719 118.715 76.0926 119.359C75.4133 120.004 74.6286 120.507 73.7385 120.847C72.8483 121.186 71.9114 121.362 70.9392 121.362C69.9671 121.362 69.0301 121.186 68.14 120.847C67.2499 120.507 66.4652 120.015 65.7859 119.359C65.1066 118.715 64.5561 117.93 64.1579 117.029C63.7479 116.127 63.5488 115.084 63.5488 113.913V93.5808ZM68.5148 113.913C68.5148 114.628 68.7373 115.225 69.1941 115.693C69.6509 116.162 70.2365 116.396 70.9509 116.396C71.6654 116.396 72.251 116.162 72.7078 115.693C73.1645 115.225 73.3871 114.628 73.3871 113.913V93.5808C73.3871 92.8664 73.1645 92.2807 72.7078 91.8005C72.251 91.332 71.6654 91.0978 70.9509 91.0978C70.2365 91.0978 69.6509 91.332 69.1941 91.8005C68.7373 92.269 68.5148 92.8664 68.5148 93.5808V113.913Z" fill="#363636"/>
<path d="M87.8281 121.07L93.4734 106.523L93.3797 106.43C93.2157 106.558 92.9697 106.664 92.6301 106.746C92.2904 106.828 91.8454 106.863 91.2949 106.863C90.4165 106.863 89.6083 106.652 88.8588 106.23C88.1092 105.809 87.5236 105.27 87.1019 104.626C86.8794 104.298 86.692 103.958 86.5632 103.583C86.4343 103.209 86.3407 102.728 86.2704 102.143C86.1767 101.557 86.1064 100.819 86.0713 99.9293C86.0361 99.0391 86.0244 97.9148 86.0244 96.5445C86.0244 95.4084 86.0361 94.4714 86.0713 93.7452C86.1064 93.0191 86.165 92.3866 86.2704 91.8713C86.3407 91.3794 86.446 90.9694 86.5866 90.6064C86.7271 90.255 86.9145 89.8802 87.1488 89.482C87.793 88.4162 88.6597 87.5846 89.7489 86.999C90.8381 86.4134 92.0562 86.1206 93.4265 86.1206C94.7969 86.1206 96.0032 86.4251 97.0807 87.0224C98.1465 87.6198 99.0132 88.4396 99.6574 89.482C99.8799 89.8685 100.079 90.2433 100.243 90.6064C100.407 90.9694 100.536 91.3794 100.63 91.8713C100.7 92.3866 100.747 93.0191 100.77 93.7452C100.805 94.4714 100.817 95.4084 100.817 96.5445C100.817 97.6103 100.805 98.5004 100.77 99.1914C100.735 99.8941 100.688 100.48 100.63 100.972C100.536 101.487 100.43 101.955 100.313 102.354C100.196 102.764 100.067 103.185 99.9034 103.642L93.3797 121.058H87.8398L87.8281 121.07ZM90.9904 100.011C90.9904 100.761 91.2363 101.358 91.7165 101.815C92.2085 102.272 92.7706 102.494 93.4148 102.494C94.059 102.494 94.6329 102.272 95.1131 101.815C95.605 101.358 95.8392 100.761 95.8392 100.011V93.593C95.8392 92.8434 95.5933 92.2461 95.1131 91.7893C94.6212 91.3325 94.059 91.11 93.4148 91.11C92.7706 91.11 92.1967 91.3325 91.7165 91.7893C91.2246 92.2461 90.9904 92.8434 90.9904 93.593V100.011Z" fill="#363636"/>
</g>
<path d="M35.1349 194.599V163.609H29.1968V158.783H46.2029V163.609H40.2648V194.599H35.1349Z" fill="#363636"/>
<path d="M52.9961 194.599V158.783H68.2922V163.609H58.126V174.126H66.9805V178.952H58.126V189.469H68.2922V194.599H52.9961Z" fill="#363636"/>
<path d="M73.6211 194.599L80.8592 175.836L74.1716 158.783H79.606L83.4828 169.394L87.4064 158.783H92.8408L86.0009 175.836L93.3913 194.599H87.9568L83.4828 182.524L79.0556 194.599H73.6211Z" fill="#363636"/>
<path d="M103.604 194.599V163.609H97.6663V158.783H114.672V163.609H108.734V194.599H103.604Z" fill="#363636"/>
<path style="mix-blend-mode:hard-light" opacity="0.22" d="M368.347 259.637V0.375488L0.888489 0.375488V259.637H368.347Z" fill="url(#paint0_linear_902_668)"/>
</g>
<defs>
<linearGradient id="paint0_linear_902_668" x1="46.7066" y1="0.832261" x2="327.67" y2="263.994" gradientUnits="userSpaceOnUse">
<stop stop-color="#DEDEDF"/>
<stop offset="0.03" stop-color="#969699"/>
<stop offset="0.05" stop-color="#626265"/>
<stop offset="0.07" stop-color="#424245"/>
<stop offset="0.08" stop-color="#36363A"/>
<stop offset="0.1" stop-color="#3F3F43"/>
<stop offset="0.15" stop-color="#58585B"/>
<stop offset="0.2" stop-color="#808083"/>
<stop offset="0.27" stop-color="#B8B8BA"/>
<stop offset="0.29" stop-color="#CDCDCE"/>
<stop offset="0.31" stop-color="#C6C6C7"/>
<stop offset="0.35" stop-color="#B4B4B6"/>
<stop offset="0.4" stop-color="#97979A"/>
<stop offset="0.44" stop-color="#6F6F72"/>
<stop offset="0.46" stop-color="#5F5F63"/>
<stop offset="0.51" stop-color="#636367"/>
<stop offset="0.56" stop-color="#707074"/>
<stop offset="0.62" stop-color="#878789"/>
<stop offset="0.65" stop-color="#98989A"/>
<stop offset="0.68" stop-color="#A5A5A6"/>
<stop offset="0.73" stop-color="#C7C7C8"/>
<stop offset="0.8" stop-color="white"/>
<stop offset="0.83" stop-color="#D1D1D2"/>
<stop offset="0.9" stop-color="#4F4F53"/>
<stop offset="0.94" stop-color="#1B1B20"/>
<stop offset="0.95" stop-color="#313136"/>
<stop offset="0.96" stop-color="#4D4D51"/>
<stop offset="0.97" stop-color="#747476"/>
<stop offset="0.99" stop-color="#A5A5A7"/>
<stop offset="1" stop-color="#E9E9E9"/>
</linearGradient>
</defs>
</svg>
